<svg width="19" height="19" viewBox="0 0 19 19" fill="none" xmlns="http://www.w3.org/2000/svg">
<g clip-path="url(#clip0)">
<path d="M9.44263 0.806335C4.47972 0.806335 0.442627 4.84343 0.442627 9.80634C0.442627 14.7692 4.47972 18.8063 9.44263 18.8063C14.4055 18.8063 18.4426 14.7685 18.4426 9.80634C18.4426 4.84414 14.4055 0.806335 9.44263 0.806335ZM9.44263 17.4121C5.24937 17.4121 1.83689 14.0003 1.83689 9.80634C1.83689 5.61237 5.24937 2.2006 9.44263 2.2006C13.6359 2.2006 17.0484 5.61237 17.0484 9.80634C17.0484 14.0003 13.6366 17.4121 9.44263 17.4121Z" fill="#2A9BDB"/>
<path d="M12.9283 9.04643H10.1398V6.25791C10.1398 5.87309 9.82817 5.56076 9.44265 5.56076C9.05712 5.56076 8.7455 5.87309 8.7455 6.25791V9.04643H5.95698C5.57145 9.04643 5.25983 9.35876 5.25983 9.74358C5.25983 10.1284 5.57145 10.4407 5.95698 10.4407H8.7455V13.2293C8.7455 13.6141 9.05712 13.9264 9.44265 13.9264C9.82817 13.9264 10.1398 13.6141 10.1398 13.2293V10.4407H12.9283C13.3138 10.4407 13.6255 10.1284 13.6255 9.74358C13.6255 9.35876 13.3138 9.04643 12.9283 9.04643Z" fill="#2A9BDB"/>
</g>
<defs>
<clipPath id="clip0">
<rect width="18" height="18" fill="white" transform="translate(0.442627 0.806335)"/>
</clipPath>
</defs>
</svg>
