<svg width="15" height="19" viewBox="0 0 15 19" fill="none" xmlns="http://www.w3.org/2000/svg">
<path d="M7.5 9.93114C8.43946 9.93114 9.35782 9.66722 10.139 9.17275C10.9201 8.67829 11.5289 7.97548 11.8884 7.15321C12.2479 6.33095 12.342 5.42615 12.1587 4.55323C11.9754 3.68032 11.5231 2.87849 10.8588 2.24916C10.1945 1.61982 9.34809 1.19124 8.42668 1.01761C7.50527 0.843972 6.5502 0.933087 5.68225 1.27368C4.8143 1.61428 4.07246 2.19105 3.55052 2.93107C3.02858 3.67109 2.75 4.54112 2.75 5.43114C2.75126 6.62425 3.25211 7.76815 4.14263 8.6118C5.03316 9.45546 6.24061 9.92995 7.5 9.93114ZM7.5 2.43114C8.12631 2.43114 8.73855 2.60709 9.2593 2.93673C9.78006 3.26637 10.1859 3.73491 10.4256 4.28309C10.6653 4.83127 10.728 5.43447 10.6058 6.01641C10.4836 6.59835 10.182 7.1329 9.73917 7.55246C9.2963 7.97202 8.73206 8.25774 8.11779 8.3735C7.50351 8.48925 6.8668 8.42984 6.28817 8.20278C5.70954 7.97572 5.21497 7.5912 4.86701 7.09785C4.51906 6.6045 4.33333 6.02448 4.33333 5.43114C4.33333 4.63549 4.66696 3.87243 5.26083 3.30982C5.85469 2.74721 6.66015 2.43114 7.5 2.43114Z" fill="#2A9BDB"/>
<path d="M7.5 11.4311C5.61098 11.4331 3.79992 12.1449 2.46418 13.4104C1.12844 14.6758 0.377095 16.3915 0.375 18.1811C0.375 18.38 0.458407 18.5708 0.606874 18.7115C0.75534 18.8521 0.956704 18.9311 1.16667 18.9311C1.37663 18.9311 1.57799 18.8521 1.72646 18.7115C1.87493 18.5708 1.95833 18.38 1.95833 18.1811C1.95833 16.7888 2.54219 15.4534 3.58145 14.4688C4.62071 13.4843 6.03026 12.9311 7.5 12.9311C8.96974 12.9311 10.3793 13.4843 11.4186 14.4688C12.4578 15.4534 13.0417 16.7888 13.0417 18.1811C13.0417 18.38 13.1251 18.5708 13.2735 18.7115C13.422 18.8521 13.6234 18.9311 13.8333 18.9311C14.0433 18.9311 14.2447 18.8521 14.3931 18.7115C14.5416 18.5708 14.625 18.38 14.625 18.1811C14.6229 16.3915 13.8716 14.6758 12.5358 13.4104C11.2001 12.1449 9.38902 11.4331 7.5 11.4311Z" fill="#2A9BDB"/>
</svg>
